<svg xmlns="http://www.w3.org/2000/svg" xmlns:xlink="http://www.w3.org/1999/xlink" width="220" height="81" viewBox="0 0 220 81"><defs><linearGradient id="c" x1="48.079%" x2="-17.779%" y1="50%" y2="50%"><stop offset="0%" stop-opacity="0"/><stop offset="100%" stop-opacity=".638"/></linearGradient><linearGradient id="d" x1="66.278%" x2="100%" y1="50%" y2="50%"><stop offset="0%" stop-opacity="0"/><stop offset="100%" stop-opacity=".203"/></linearGradient><linearGradient id="e" x1="49.997%" x2="49.997%" y1="99.997%" y2="-.002%"><stop offset="0%" stop-color="#DAB232"/><stop offset="100%" stop-color="#BB9930"/></linearGradient><linearGradient id="f" x1=".003%" x2="100%" y1="49.995%" y2="49.995%"><stop offset="0%" stop-color="#DAB232"/><stop offset="100%" stop-color="#BB9930"/></linearGradient><linearGradient id="g" x1=".002%" x2="100%" y1="49.998%" y2="49.998%"><stop offset="0%" stop-color="#F0DD64"/><stop offset="97.31%" stop-color="#FFF" stop-opacity="0"/></linearGradient><linearGradient id="h" x1="99.998%" x2="-.002%" y1="49.997%" y2="49.997%"><stop offset="0%" stop-color="#F0DD64"/><stop offset="97.31%" stop-color="#FFF" stop-opacity="0"/></linearGradient><path id="a" d="M0.666666667,32 L0,4.46511628 C3.55555556,1.48837209 7.55555556,0 12,0 C18.6666667,0 25.3333333,4.46511628 31.3333333,4.46511628 C35.3333333,4.46511628 38.2222222,4.46511628 40,4.46511628 L39.3333333,30.5116279 C37.5555556,31.503876 34.8888889,32 31.3333333,32 C26,32 18.6666667,28.2790698 12,28.2790698 C7.55555556,28.2790698 3.77777778,29.5193798 0.666666667,32 Z"/></defs><g fill="none" fill-rule="evenodd" transform="translate(0 .071)"><g transform="translate(157.892)"><g transform="translate(22.108 17.929)"><mask id="b" fill="#fff"><use xlink:href="#a"/></mask><use xlink:href="#a" fill="gold"/><path fill="#0057B7" d="M-1,18 L-0.322580645,4.32 C3.29032258,1.44 7.35483871,0 11.8709677,0 C18.6451613,0 25.4193548,4.32 31.516129,4.32 C35.5806452,4.32 38.516129,4.32 40.3225806,4.32 L41,16.56 C38.2903226,17.52 35.1290323,18 31.516129,18 C26.0967742,18 18.6451613,14.4 11.8709677,14.4 C7.35483871,14.4 3.06451613,15.6 -1,18 Z" mask="url(#b)"/><path fill="url(#c)" d="M0.666666667,32 L0,4.46511628 C3.55555556,1.48837209 7.55555556,0 12,0 C18.6666667,0 25.3333333,4.46511628 31.3333333,4.46511628 C35.3333333,4.46511628 38.2222222,4.46511628 40,4.46511628 L39.3333333,30.5116279 C37.5555556,31.503876 34.8888889,32 31.3333333,32 C26,32 18.6666667,28.2790698 12,28.2790698 C7.55555556,28.2790698 3.77777778,29.5193798 0.666666667,32 Z" mask="url(#b)"/><path fill="url(#d)" d="M0.666666667,32 L0,4.46511628 C3.55555556,1.48837209 7.55555556,0 12,0 C18.6666667,0 25.3333333,4.46511628 31.3333333,4.46511628 C35.3333333,4.46511628 38.2222222,4.46511628 40,4.46511628 L39.3333333,30.5116279 C37.5555556,31.503876 34.8888889,32 31.3333333,32 C26,32 18.6666667,28.2790698 12,28.2790698 C7.55555556,28.2790698 3.77777778,29.5193798 0.666666667,32 Z" mask="url(#b)"/></g><path fill="#EB2026" fill-rule="nonzero" d="M17.962,16.033 L23.419,21.304 L23.419,16.252 L29.559,16.252 L29.559,26.354 L36.606,33.383 L36.606,56.661 L0,56.661 L0,33.383 L17.962,16.033 Z M35.924,2.855 C38.6865283,2.855 40.926,5.01836009 40.926,7.687 C40.926,10.3556399 38.6865283,12.519 35.924,12.519 C34.2217763,12.519 32.7181477,11.6976115 31.8146756,10.4427484 L31.8269613,10.5875066 L31.8269613,10.5875066 L31.832,10.762 C31.832,12.4602756 30.4069224,13.837 28.649,13.837 C26.8910776,13.837 25.466,12.4602756 25.466,10.762 C25.466,9.06372439 26.8910776,7.687 28.649,7.687 C29.6019947,7.687 30.4571703,8.09160249 31.0405116,8.73269651 C30.9625776,8.39628409 30.922,8.04621969 30.922,7.687 C30.922,5.01836009 33.1614717,2.855 35.924,2.855 Z M43.655,0 C45.1621851,0 46.384,1.1801774 46.384,2.636 C46.384,4.0918226 45.1621851,5.272 43.655,5.272 C42.1478149,5.272 40.926,4.0918226 40.926,2.636 C40.926,1.1801774 42.1478149,0 43.655,0 Z"/></g><rect width="6.715" height="4.886" x="160.18" y="50.083" fill="#FFF"/><rect width="6.063" height="21.314" x="170.819" y="33.655" fill="#FFF"/><path fill="#FFF" d="M190.898,54.918 C190.151,55.016 189.505,55.094 188.949,55.147 C188.391,55.2 187.923,55.225 187.529,55.225 C186.322,55.225 185.289,55.081 184.44,54.793 C183.585,54.505 182.96,54.097 182.558,53.56 C182.294,53.194 182.104,52.726 182.002,52.169 C181.893,51.612 181.839,50.76 181.839,49.612 L181.839,47.632 L181.839,42.26 L179.469,42.26 L179.469,38.948 L181.839,38.948 L181.839,34.515 L187.977,34.515 L187.977,38.948 L190.898,38.948 L190.898,42.26 L187.977,42.26 L187.977,48.8 C187.977,50.189 188.121,51.048 188.399,51.369 C188.677,51.697 189.214,51.855 190.008,51.855 C190.143,51.855 190.374,51.842 190.687,51.815 C190.776,51.802 190.843,51.802 190.898,51.802 L190.898,54.918 Z"/><path fill="#000" fill-rule="nonzero" d="M10.668 13.618C9.099 13.938 7.951 14.339 7.226 14.823 6.506 15.302 6.145 15.906 6.145 16.628 6.145 17.134 6.323 17.538 6.682 17.848 7.042 18.15 7.517 18.305 8.122 18.305 9.018 18.305 9.664 18.082 10.07 17.638 10.471 17.192 10.669 16.45 10.669 15.408L10.669 13.618 10.668 13.618ZM11.447 21.315 11.088 19.861C10.321 20.45 9.478 20.896 8.562 21.197 7.645 21.493 6.654 21.643 5.582 21.643 3.863 21.643 2.505 21.237 1.507 20.424.502 19.61 0 18.515 0 17.133 0 15.918.427 14.92 1.277 14.141 2.133 13.354 3.531 12.672 5.48 12.102L7.367 11.591C9.642 10.98 10.783 10.285 10.783 9.518 10.783 9.047 10.62 8.692 10.294 8.443 9.967 8.2 9.492 8.075 8.875 8.075 8.135 8.075 7.584 8.24 7.226 8.567 6.865 8.902 6.688 9.406 6.688 10.088L6.688 10.199.543 10.199C.543 8.389 1.236 7.044 2.607 6.159 3.985 5.273 6.077 4.836 8.875 4.836 10.137 4.836 11.264 4.918 12.256 5.091 13.247 5.262 14.076 5.51 14.74 5.831 15.603 6.257 16.207 6.769 16.553 7.373 16.9 7.977 17.07 9.07 17.07 10.658L17.07 11.142 17.07 16.849C17.07 18.095 17.13 19.052 17.252 19.707 17.367 20.363 17.571 20.902 17.85 21.313L11.447 21.313 11.447 21.315ZM20.962 21.315 20.962 5.294 26.584 5.294 26.584 7.536C27.25 6.737 27.989 6.135 28.791 5.722 29.591 5.308 30.495 5.06 31.507 4.988L31.507 10.075C31.167 10.017 30.841 9.97 30.528 9.944 30.222 9.913 29.938 9.897 29.686 9.897 28.702 9.897 28.016 10.155 27.628 10.659 27.249 11.171 27.051 12.161 27.051 13.644L27.051 21.315 20.962 21.315ZM50.314 5.294 50.314 21.315 44.591 21.315 44.591 19.421C43.905 20.189 43.145 20.751 42.297 21.113 41.455 21.467 40.456 21.642 39.309 21.642 37.618 21.642 36.375 21.229 35.581 20.396 34.787 19.564 34.386 18.251 34.386 16.468L34.386 5.294 40.53 5.294 40.53 15.198C40.53 16.482 40.639 17.276 40.869 17.585 41.094 17.894 41.494 18.051 42.078 18.051 42.757 18.051 43.286 17.809 43.674 17.329 44.054 16.85 44.251 16.175 44.251 15.309L44.251 5.294 50.314 5.294ZM60.208 13.309C60.208 15.571 60.344 16.981 60.615 17.552 60.887 18.121 61.389 18.405 62.136 18.405 62.876 18.405 63.386 18.129 63.657 17.585 63.923 17.041 64.058 15.618 64.058 13.31 64.058 11.008 63.923 9.578 63.657 9.028 63.386 8.476 62.876 8.201 62.136 8.201 61.389 8.201 60.886 8.49 60.615 9.066 60.344 9.636 60.208 11.053 60.208 13.309ZM53.988 13.309C53.988 10.188 54.599 8.002 55.829 6.744 57.051 5.491 59.155 4.862 62.137 4.862 65.119 4.862 67.216 5.485 68.445 6.731 69.667 7.977 70.278 10.172 70.278 13.309 70.278 16.429 69.667 18.621 68.445 19.866 67.216 21.12 65.119 21.749 62.137 21.749 59.142 21.749 57.037 21.127 55.815 19.887 54.599 18.64 53.988 16.45 53.988 13.309ZM81.624 8.712C80.85 8.712 80.32 9 80.036 9.584 79.75 10.168 79.608 11.46 79.608 13.46 79.608 15.546 79.743 16.843 80.009 17.355 80.274 17.867 80.762 18.129 81.475 18.129 82.283 18.129 82.847 17.814 83.153 17.197 83.465 16.575 83.622 14.941 83.622 12.292 83.622 10.935 83.472 9.997 83.174 9.48 82.874 8.967 82.358 8.712 81.624 8.712ZM89.575.001 89.575 21.315 83.96 21.315 83.96 19.565C83.376 20.28 82.67 20.831 81.827 21.205 80.986 21.586 80.056 21.768 79.031 21.768 78.175 21.768 77.394 21.658 76.696 21.435 75.989 21.205 75.398 20.883 74.923 20.47 74.38 19.973 73.993 19.302 73.776 18.469 73.552 17.63 73.443 16.063 73.443 13.76 73.443 10.141 73.857 7.766 74.692 6.625 75.528 5.484 77.022 4.913 79.188 4.913 80.111 4.913 80.919 5.064 81.611 5.359 82.305 5.66 82.93 6.119 83.486 6.75L83.486 0 89.575 0 89.575.001ZM103.537 13.618C101.967 13.938 100.82 14.339 100.094 14.823 99.374 15.302 99.007 15.906 99.007 16.628 99.007 17.134 99.191 17.538 99.55 17.848 99.904 18.15 100.386 18.305 100.989 18.305 101.885 18.305 102.531 18.082 102.931 17.638 103.338 17.192 103.536 16.45 103.536 15.408L103.536 13.618 103.537 13.618ZM104.316 21.315 103.956 19.861C103.183 20.45 102.342 20.896 101.431 21.197 100.514 21.493 99.524 21.643 98.451 21.643 96.733 21.643 95.375 21.237 94.371 20.424 93.371 19.61 92.869 18.515 92.869 17.133 92.869 15.918 93.297 14.92 94.146 14.141 95.001 13.354 96.401 12.672 98.348 12.102L100.237 11.591C102.511 10.98 103.652 10.285 103.652 9.518 103.652 9.047 103.489 8.692 103.163 8.443 102.838 8.2 102.362 8.075 101.744 8.075 101.004 8.075 100.454 8.24 100.095 8.567 99.735 8.902 99.558 9.406 99.558 10.088L99.558 10.199 93.414 10.199C93.414 8.389 94.105 7.044 95.476 6.159 96.855 5.273 98.94 4.836 101.744 4.836 103.007 4.836 104.135 4.918 105.126 5.091 106.116 5.262 106.945 5.51 107.611 5.831 108.473 6.257 109.071 6.769 109.424 7.373 109.769 7.977 109.94 9.07 109.94 10.658L109.94 11.142 109.94 16.849C109.94 18.095 110.001 19.052 110.124 19.707 110.238 20.363 110.442 20.902 110.721 21.313L104.316 21.313 104.316 21.315ZM112.634 16.226 118.1 16.239C118.161 17.073 118.385 17.677 118.765 18.058 119.146 18.444 119.716 18.633 120.483 18.633 121.087 18.633 121.591 18.502 121.985 18.239 122.379 17.977 122.575 17.636 122.575 17.223 122.575 16.862 122.44 16.566 122.168 16.33 121.897 16.095 121.285 15.813 120.349 15.491L119.398 15.164C117.192 14.415 115.65 13.714 114.781 13.058 114.163 12.613 113.688 12.094 113.362 11.505 113.037 10.913 112.874 10.297 112.874 9.648 112.874 8.192 113.546 7.031 114.904 6.159 116.262 5.293 118.094 4.861 120.41 4.861 122.806 4.861 124.653 5.281 125.945 6.113 127.242 6.946 127.886 8.146 127.886 9.709L127.886 10.002 122.529 9.984C122.502 9.176 122.332 8.605 122.026 8.257 121.714 7.915 121.212 7.745 120.518 7.745 119.901 7.745 119.405 7.87 119.039 8.113 118.672 8.354 118.488 8.682 118.488 9.078 118.488 9.778 119.405 10.427 121.239 11.024L121.823 11.213C124.328 12.041 126.006 12.834 126.848 13.615 127.697 14.388 128.122 15.404 128.122 16.657 128.122 18.276 127.436 19.53 126.072 20.415 124.707 21.3 122.765 21.746 120.233 21.746 117.836 21.746 115.968 21.295 114.637 20.394 113.299 19.502 112.634 18.244 112.634 16.624L112.634 16.226 112.634 16.226Z" transform="translate(23.766 33.654)"/><g transform="translate(0 55.278)"><path fill="url(#e)" d="M201.667,1.13686838e-13 L201.667,19.675 L220,19.675 L220,19.317 C218.703,16.607 217.963,13.492 217.963,10.168 C217.963,6.842 218.703,3.726 220,1.019 L220,0.001 L201.667,0.001 L201.667,1.13686838e-13 Z"/><path fill="url(#f)" d="M18.334,1.13686838e-13 L18.334,19.675 L0,19.675 L0,19.317 C1.297,16.607 2.038,13.492 2.038,10.168 C2.038,6.842 1.298,3.726 0,1.019 L0,0.001 L18.334,0.001 L18.334,1.13686838e-13 Z"/><rect width="194.197" height="19.675" x="12.901" y="5.903" fill="#D0AB2B"/><rect width="194.197" height="19.676" x="12.901" y="5.248" fill="#EDCB40"/><rect width="20.37" height="19.676" x="186.729" y="5.248" fill="#E9CB46"/><polygon fill="#F6DD39" points="18.334 0 18.334 5.248 12.901 5.248"/><polygon fill="#F6DD39" points="201.667 0 201.667 5.248 207.099 5.248"/><rect width="20.371" height="19.676" x="12.901" y="5.248" fill="url(#g)"/><rect width="20.37" height="19.676" x="186.729" y="5.248" fill="url(#h)"/></g><g fill="#F5E56D" fill-rule="nonzero" transform="translate(20 64.929)"><path d="M.103 9.789.103 1.026 1.395 1.026 4.289 5.46C4.948 6.487 5.487 7.41 5.904 8.307L5.945 8.294C5.837 7.124 5.81 6.058 5.81 4.692L5.81 1.026 6.914 1.026 6.914 9.789 5.73 9.789 2.85 5.343C2.218 4.368 1.612 3.367 1.168 2.418L1.127 2.431C1.194 3.536 1.208 4.589 1.208 6.045L1.208 9.789.103 9.789ZM9.052 5.46C9.052 4.719 9.039 4.082 8.998 3.497L10.034 3.497 10.088 4.745 10.129 4.745C10.425 3.899 11.152 3.367 11.946 3.367 12.067 3.367 12.161 3.38 12.269 3.392L12.269 4.471C12.148 4.446 12.027 4.446 11.866 4.446 11.032 4.446 10.439 5.044 10.278 5.902 10.251 6.057 10.238 6.253 10.238 6.434L10.238 9.788 9.053 9.788 9.053 5.46 9.052 5.46ZM12.457 9.113C12.457 8.645 12.793 8.294 13.265 8.294 13.737 8.294 14.059 8.632 14.059 9.113 14.059 9.581 13.736 9.93100213 13.238 9.93100213 12.78 9.932 12.457 9.581 12.457 9.113Z"/><polygon points="17.72 2.405 17.693 2.405 16.172 3.198 15.943 2.327 17.854 1.339 18.864 1.339 18.864 9.789 17.72 9.789"/><polygon points="25.875 1.326 24.597 2.951 24.597 2.976 26.629 2.716 26.629 3.6 24.597 3.353 24.597 3.392 25.889 4.953 25.041 5.421 24.22 3.601 24.193 3.601 23.332 5.434 22.565 4.966 23.843 3.38 23.843 3.341 21.851 3.601 21.851 2.717 23.83 2.964 23.83 2.938 22.565 1.339 23.386 .884 24.22 2.704 24.247 2.704 25.068 .871"/><polygon points="30.895 1.026 32.08 1.026 32.08 8.839 35.956 8.839 35.956 9.788 30.895 9.788"/><path d="M41.796 8.281C41.796 8.827 41.823 9.36 41.89 9.789L40.827 9.789 40.733 8.996 40.692 8.996C40.329 9.49 39.629 9.932 38.7 9.932 37.381 9.932 36.708 9.036 36.708 8.125 36.708 6.604 38.107 5.771 40.624 5.785L40.624 5.655C40.624 5.147 40.476 4.199 39.144 4.212 38.525 4.212 37.892 4.381 37.435 4.68L37.166 3.913C37.704 3.588 38.498 3.367 39.319 3.367 41.311 3.367 41.795 4.679 41.795 5.928L41.795 8.281 41.796 8.281ZM40.652 6.578C39.36 6.552 37.893 6.772 37.893 7.995 37.893 8.749 38.405 9.087 38.997 9.087 39.858 9.087 40.41 8.567 40.599 8.034 40.64 7.904 40.653 7.774 40.653 7.67L40.653 6.578 40.652 6.578ZM43.708 5.2C43.708 4.537 43.695 4.016 43.654 3.497L44.704 3.497 44.771 4.537 44.798 4.537C45.121 3.952 45.875 3.367 46.951 3.367 47.852 3.367 49.252 3.887 49.252 6.045L49.252 9.789 48.067 9.789 48.067 6.162C48.067 5.147 47.677 4.303 46.56 4.303 45.793 4.303 45.187 4.836 44.972 5.473 44.918 5.617 44.891 5.811 44.891 6.006L44.891 9.789 43.706 9.789 43.706 5.2 43.708 5.2ZM52.348 6.383 52.375 6.383C52.537 6.162 52.752 5.889 52.94 5.668L54.864 3.497 56.277 3.497 53.774 6.084 56.64 9.789 55.187 9.789 52.953 6.772 52.348 7.422 52.348 9.788 51.177 9.788 51.177.558 52.348.558 52.348 6.383ZM63.384 6.591C63.384 8.918 61.702 9.932 60.141 9.932 58.391 9.932 57.018 8.684 57.018 6.696 57.018 4.602 58.458 3.36799943 60.248 3.36799943 62.119 3.367 63.384 4.68 63.384 6.591ZM58.229 6.656C58.229 8.034 59.037 9.074 60.194 9.074 61.324 9.074 62.173 8.047 62.173 6.63 62.173 5.564 61.621 4.225 60.221 4.225 58.835 4.225 58.229 5.473 58.229 6.656ZM64.878 5.2C64.878 4.537 64.851 4.016 64.824 3.497L65.86 3.497 65.914 4.523 65.955 4.523C66.318 3.925 66.924 3.367 68.014 3.367 68.889 3.367 69.562 3.887 69.845 4.628L69.872 4.628C70.074 4.264 70.343 4.004 70.612 3.809 71.002 3.523 71.419 3.368 72.038 3.368 72.913 3.368 74.191 3.914 74.191 6.097L74.191 9.789 73.034 9.789 73.034 6.24C73.034 5.017 72.563 4.302 71.621 4.302 70.934 4.302 70.423 4.783 70.208 5.329 70.154 5.498 70.114 5.693 70.114 5.901L70.114 9.788 68.957 9.788 68.957 6.017C68.957 5.016 68.499 4.301 67.598 4.301 66.871 4.301 66.319 4.873 66.131 5.446 66.064 5.601 66.037 5.809 66.037 6.005L66.037 9.788 64.88 9.788 64.88 5.2 64.878 5.2ZM77.421 1.729C77.421 2.12 77.138 2.431 76.668 2.431 76.237 2.431 75.955 2.119 75.955 1.729 75.955 1.339 76.251 1.014 76.695 1.014 77.125 1.014 77.421 1.326 77.421 1.729ZM76.103 9.789 76.103 3.497 77.288 3.497 77.288 9.789 76.103 9.789ZM83.827 8.281C83.827 8.827 83.854 9.36 83.921 9.789L82.858 9.789 82.764 8.996 82.723 8.996C82.36 9.49 81.66 9.932 80.731 9.932 79.412 9.932 78.739 9.036 78.739 8.125 78.739 6.604 80.138 5.771 82.655 5.785L82.655 5.655C82.655 5.147 82.507 4.199 81.175 4.212 80.556 4.212 79.924 4.381 79.466 4.68L79.197 3.913C79.735 3.588 80.53 3.367 81.35 3.367 83.342 3.367 83.826 4.679 83.826 5.928L83.826 8.281 83.827 8.281ZM82.684 6.578C81.392 6.552 79.925 6.772 79.925 7.995 79.925 8.749 80.437 9.087 81.029 9.087 81.89 9.087 82.442 8.567 82.631 8.034 82.672 7.904 82.685 7.774 82.685 7.67L82.685 6.578 82.684 6.578ZM91.189 8.06C91.189 8.723 91.202 9.295 91.243 9.789L90.193 9.789 90.126 8.762 90.099 8.762C89.803 9.269 89.103 9.932 87.946 9.932 86.924 9.932 85.698 9.373 85.698 7.176L85.698 3.497 86.883 3.497 86.883 6.968C86.883 8.164 87.273 8.984 88.337 8.984 89.131 8.984 89.683 8.451 89.898 7.93 89.965 7.775 90.005 7.567 90.005 7.345L90.005 3.497 91.19 3.497 91.19 8.06 91.189 8.06ZM92.993 8.632C93.356 8.84 93.975 9.074 94.567 9.074 95.415 9.074 95.819 8.671 95.819 8.137 95.819 7.591 95.482 7.305 94.621 6.993 93.436 6.577 92.886 5.966 92.886 5.212 92.886 4.198 93.747 3.366 95.133 3.366 95.792 3.366 96.371 3.535 96.721 3.756L96.439 4.588C96.183 4.432 95.712 4.211 95.107 4.211 94.406 4.211 94.03 4.601 94.03 5.069 94.03 5.589 94.406 5.823 95.255 6.148 96.372 6.55 96.964 7.096 96.964 8.033 96.964 9.151 96.063 9.93 94.541 9.93 93.828 9.93 93.169 9.748 92.711 9.489L92.993 8.632ZM99.803 1.729C99.803 2.12 99.521 2.431 99.05 2.431 98.618 2.431 98.336 2.119 98.336 1.729 98.336 1.339 98.632 1.014 99.076 1.014 99.507 1.014 99.803 1.326 99.803 1.729ZM98.483 9.789 98.483 3.497 99.669 3.497 99.669 9.789 98.483 9.789ZM106.209 8.281C106.209 8.827 106.236 9.36 106.304 9.789L105.241 9.789 105.146 8.996 105.106 8.996C104.743 9.49 104.043 9.932 103.114 9.932 101.796 9.932 101.123 9.036 101.123 8.125 101.123 6.604 102.522 5.771 105.039 5.785L105.039 5.655C105.039 5.147 104.892 4.199 103.559 4.212 102.94 4.212 102.308 4.381 101.85 4.68L101.58 3.913C102.119 3.588 102.913 3.367 103.733 3.367 105.725 3.367 106.21 4.679 106.21 5.928L106.21 8.281 106.209 8.281ZM105.065 6.578C103.773 6.552 102.306 6.772 102.306 7.995 102.306 8.749 102.817 9.087 103.41 9.087 104.271 9.087 104.823 8.567 105.012 8.034 105.052 7.904 105.066 7.774 105.066 7.67L105.066 6.578 105.065 6.578ZM107.959 8.632C108.322 8.84 108.941 9.074 109.533 9.074 110.381 9.074 110.785 8.671 110.785 8.137 110.785 7.591 110.448 7.305 109.587 6.993 108.402 6.577 107.851 5.966 107.851 5.212 107.851 4.198 108.712 3.366 110.099 3.366 110.758 3.366 111.337 3.535 111.687 3.756L111.405 4.588C111.149 4.432 110.677 4.211 110.072 4.211 109.373 4.211 108.996 4.601 108.996 5.069 108.996 5.589 109.373 5.823 110.221 6.148 111.338 6.55 111.93 7.096 111.93 8.033 111.93 9.151 111.029 9.93 109.507 9.93 108.794 9.93 108.135 9.748 107.677 9.489L107.959 8.632ZM116.343 9.789 116.343 1.026 117.635 1.026 120.529 5.46C121.189 6.487 121.727 7.41 122.144 8.307L122.184 8.294C122.077 7.124 122.05 6.058 122.05 4.692L122.05 1.026 123.154 1.026 123.154 9.789 121.969 9.789 119.089 5.343C118.456 4.368 117.851 3.367 117.406 2.418L117.366 2.431C117.433 3.536 117.446 4.589 117.446 6.045L117.446 9.789 116.343 9.789Z"/><polygon points="126.921 1.989 124.162 1.989 124.162 1.026 130.878 1.026 130.878 1.989 128.106 1.989 128.106 9.789 126.921 9.789 126.921 1.989"/><path d="M134.7 5.551C134.7 4.745 134.673 4.095 134.646 3.497L135.696 3.497 135.763 4.576 135.789 4.576C136.261 3.808 137.041 3.367 138.104 3.367 139.692 3.367 140.876 4.654 140.876 6.552 140.876 8.815 139.436 9.932 137.901 9.932 137.04 9.932 136.286 9.569 135.896 8.945L135.869 8.945 135.869 12.364 134.7 12.364 134.7 5.551ZM135.871 7.228C135.871 7.398 135.885 7.553 135.925 7.697 136.141 8.49 136.854 9.036 137.701 9.036 138.953 9.036 139.68 8.048 139.68 6.604 139.68 5.356 138.993 4.277 137.742 4.277 136.934 4.277 136.167 4.824 135.952 5.681 135.911 5.825 135.871 5.993 135.871 6.136L135.871 7.228 135.871 7.228ZM148.253 6.591C148.253 8.918 146.571 9.932 145.01 9.932 143.26 9.932 141.888 8.684 141.888 6.696 141.888 4.602 143.327 3.36799943 145.117 3.36799943 146.988 3.367 148.253 4.68 148.253 6.591ZM143.099 6.656C143.099 8.034 143.907 9.074 145.064 9.074 146.195 9.074 147.043 8.047 147.043 6.63 147.043 5.564 146.491 4.225 145.092 4.225 143.704 4.225 143.099 5.473 143.099 6.656ZM149.747 5.46C149.747 4.719 149.733 4.082 149.693 3.497L150.729 3.497 150.783 4.745 150.824 4.745C151.12 3.899 151.846 3.367 152.64 3.367 152.761 3.367 152.855 3.38 152.963 3.392L152.963 4.471C152.842 4.446 152.721 4.446 152.559 4.446 151.725 4.446 151.132 5.044 150.971 5.902 150.945 6.057 150.931 6.253 150.931 6.434L150.931 9.788 149.746 9.788 149.746 5.46 149.747 5.46ZM155.897 1.989 155.897 3.497 157.592 3.497 157.592 4.368 155.897 4.368 155.897 7.761C155.897 8.541 156.126 8.984 156.785 8.984 157.108 8.984 157.297 8.958 157.472 8.906L157.526 9.777C157.297 9.855 156.934 9.932 156.476 9.932 155.924 9.932 155.481 9.75 155.198 9.452 154.875 9.1 154.741 8.542 154.741 7.801L154.741 4.369 153.731 4.369 153.731 3.498 154.741 3.498 154.741 2.328 155.897 1.989ZM163.502 8.281C163.502 8.827 163.528 9.36 163.596 9.789L162.533 9.789 162.439 8.996 162.399 8.996C162.036 9.49 161.336 9.932 160.407 9.932 159.088 9.932 158.415 9.036 158.415 8.125 158.415 6.604 159.815 5.771 162.332 5.785L162.332 5.655C162.332 5.147 162.184 4.199 160.852 4.212 160.233 4.212 159.6 4.381 159.143 4.68L158.873 3.913C159.411 3.588 160.205 3.367 161.026 3.367 163.018 3.367 163.503 4.679 163.503 5.928L163.503 8.281 163.502 8.281ZM162.357 6.578C161.065 6.552 159.598 6.772 159.598 7.995 159.598 8.749 160.11 9.087 160.702 9.087 161.563 9.087 162.115 8.567 162.304 8.034 162.344 7.904 162.358 7.774 162.358 7.67L162.358 6.578 162.357 6.578Z"/><polygon points="165.413 .559 166.598 .559 166.598 9.789 165.413 9.789"/><path d="M173.165 8.281C173.165 8.827 173.191 9.36 173.259 9.789L172.196 9.789 172.102 8.996 172.062 8.996C171.698 9.49 170.999 9.932 170.07 9.932 168.751 9.932 168.078 9.036 168.078 8.125 168.078 6.604 169.478 5.771 171.995 5.785L171.995 5.655C171.995 5.147 171.847 4.199 170.515 4.212 169.896 4.212 169.263 4.381 168.806 4.68L168.536 3.913C169.074 3.588 169.868 3.367 170.689 3.367 172.681 3.367 173.166 4.679 173.166 5.928L173.166 8.281 173.165 8.281ZM172.021 6.578C170.729 6.552 169.262 6.772 169.262 7.995 169.262 8.749 169.774 9.087 170.366 9.087 171.227 9.087 171.779 8.567 171.968 8.034 172.008 7.904 172.022 7.774 172.022 7.67L172.022 6.578 172.021 6.578ZM174.915 8.632C175.278 8.84 175.897 9.074 176.489 9.074 177.337 9.074 177.741 8.671 177.741 8.137 177.741 7.591 177.404 7.305 176.543 6.993 175.358 6.577 174.807 5.966 174.807 5.212 174.807 4.198 175.668 3.366 177.055 3.366 177.714 3.366 178.293 3.535 178.643 3.756L178.361 4.588C178.105 4.432 177.633 4.211 177.028 4.211 176.329 4.211 175.952 4.601 175.952 5.069 175.952 5.589 176.329 5.823 177.177 6.148 178.294 6.55 178.886 7.096 178.886 8.033 178.886 9.151 177.985 9.93 176.464 9.93 175.75 9.93 175.091 9.748 174.633 9.489L174.915 8.632Z"/></g><g fill="#000" fill-rule="nonzero" transform="translate(20 64.929)"><path d="M.75 9.561.75.798 2.042.798 4.936 5.232C5.595 6.259 6.134 7.182 6.551 8.079L6.592 8.066C6.484 6.896 6.457 5.83 6.457 4.464L6.457.798 7.561.798 7.561 9.561 6.377 9.561 3.497 5.115C2.864 4.14 2.259 3.139 1.814 2.19L1.774 2.203C1.841 3.308 1.855 4.361 1.855 5.817L1.855 9.561.75 9.561ZM9.699 5.231C9.699 4.49 9.685 3.853 9.645 3.268L10.681 3.268 10.735 4.516 10.776 4.516C11.072 3.67 11.799 3.138 12.593 3.138 12.714 3.138 12.808 3.151 12.916 3.163L12.916 4.242C12.794 4.217 12.673 4.217 12.512 4.217 11.678 4.217 11.085 4.815 10.924 5.673 10.897 5.828 10.884 6.024 10.884 6.205L10.884 9.559 9.699 9.559 9.699 5.231ZM13.104 8.885C13.104 8.417 13.44 8.066 13.912 8.066 14.384 8.066 14.706 8.404 14.706 8.885 14.706 9.353 14.383 9.703 13.885 9.703 13.427 9.703 13.104 9.353 13.104 8.885Z"/><polygon points="18.367 2.177 18.34 2.177 16.819 2.97 16.59 2.099 18.501 1.111 19.511 1.111 19.511 9.561 18.367 9.561 18.367 2.177"/><polygon points="26.522 1.098 25.244 2.723 25.244 2.748 27.276 2.488 27.276 3.372 25.244 3.125 25.244 3.164 26.536 4.725 25.688 5.193 24.867 3.373 24.84 3.373 23.979 5.206 23.212 4.738 24.49 3.152 24.49 3.113 22.498 3.373 22.498 2.489 24.477 2.736 24.477 2.71 23.212 1.111 24.033 .656 24.867 2.476 24.894 2.476 25.715 .643"/><polygon points="31.542 .798 32.727 .798 32.727 8.611 36.603 8.611 36.603 9.56 31.542 9.56"/><path d="M42.443 8.053C42.443 8.599 42.47 9.132 42.537 9.561L41.474 9.561 41.38 8.768 41.34 8.768C40.977 9.262 40.277 9.704 39.348 9.704 38.029 9.704 37.356 8.808 37.356 7.897 37.356 6.376 38.755 5.543 41.272 5.557L41.272 5.427C41.272 4.919 41.124 3.971 39.792 3.984 39.173 3.984 38.541 4.153 38.083 4.452L37.814 3.685C38.352 3.36 39.147 3.139 39.967 3.139 41.959 3.139 42.443 4.451 42.443 5.7L42.443 8.053 42.443 8.053ZM41.3 6.35C40.008 6.324 38.541 6.544 38.541 7.767 38.541 8.521 39.053 8.859 39.645 8.859 40.506 8.859 41.058 8.339 41.247 7.806 41.288 7.676 41.301 7.546 41.301 7.442L41.301 6.35 41.3 6.35ZM44.354 4.972C44.354 4.309 44.34 3.788 44.3 3.269L45.35 3.269 45.417 4.309 45.444 4.309C45.767 3.724 46.521 3.139 47.597 3.139 48.498 3.139 49.898 3.659 49.898 5.817L49.898 9.561 48.713 9.561 48.713 5.934C48.713 4.919 48.323 4.075 47.206 4.075 46.439 4.075 45.833 4.608 45.618 5.245 45.564 5.389 45.537 5.583 45.537 5.778L45.537 9.561 44.352 9.561 44.352 4.972 44.354 4.972ZM52.995 6.154 53.022 6.154C53.184 5.933 53.399 5.66 53.587 5.439L55.511 3.268 56.924 3.268 54.421 5.855 57.287 9.56 55.834 9.56 53.6 6.543 52.995 7.193 52.995 9.559 51.824 9.559 51.824.329 52.995.329 52.995 6.154ZM64.031 6.362C64.031 8.689 62.349 9.703 60.788 9.703 59.038 9.703 57.665 8.455 57.665 6.467 57.665 4.373 59.105 3.139 60.895 3.139 62.766 3.139 64.031 4.451 64.031 6.362ZM58.876 6.428C58.876 7.806 59.684 8.846 60.841 8.846 61.971 8.846 62.82 7.819 62.82 6.402 62.82 5.336 62.268 3.9969994 60.868 3.9969994 59.482 3.996 58.876 5.244 58.876 6.428ZM65.525 4.972C65.525 4.309 65.498 3.788 65.471 3.269L66.507 3.269 66.561 4.295 66.602 4.295C66.965 3.697 67.571 3.139 68.661 3.139 69.536 3.139 70.209 3.659 70.492 4.4L70.519 4.4C70.721 4.036 70.99 3.776 71.259 3.581 71.649 3.295 72.066 3.14 72.685 3.14 73.56 3.14 74.838 3.686 74.838 5.869L74.838 9.561 73.681 9.561 73.681 6.012C73.681 4.789 73.21 4.074 72.268 4.074 71.581 4.074 71.07 4.555 70.855 5.101 70.801 5.27 70.761 5.465 70.761 5.673L70.761 9.56 69.603 9.56 69.603 5.79C69.603 4.789 69.145 4.074 68.244 4.074 67.517 4.074 66.965 4.646 66.777 5.219 66.71 5.374 66.683 5.582 66.683 5.778L66.683 9.561 65.526 9.561 65.526 4.972 65.525 4.972ZM78.068 1.5C78.068 1.891 77.785 2.202 77.315 2.202 76.884 2.202 76.602 1.89 76.602 1.5 76.602 1.11 76.898.785 77.342.785 77.772.785 78.068 1.098 78.068 1.5ZM76.75 9.561 76.75 3.269 77.935 3.269 77.935 9.561 76.75 9.561ZM84.474 8.053C84.474 8.599 84.501 9.132 84.568 9.561L83.505 9.561 83.411 8.768 83.37 8.768C83.007 9.262 82.307 9.704 81.378 9.704 80.059 9.704 79.386 8.808 79.386 7.897 79.386 6.376 80.785 5.543 83.302 5.557L83.302 5.427C83.302 4.919 83.154 3.971 81.822 3.984 81.203 3.984 80.57 4.153 80.113 4.452L79.844 3.685C80.382 3.36 81.176 3.139 81.997 3.139 83.989 3.139 84.473 4.451 84.473 5.7L84.473 8.053 84.474 8.053ZM83.33 6.35C82.038 6.324 80.571 6.544 80.571 7.767 80.571 8.521 81.083 8.859 81.675 8.859 82.536 8.859 83.088 8.339 83.277 7.806 83.318 7.676 83.331 7.546 83.331 7.442L83.331 6.35 83.33 6.35ZM91.836 7.831C91.836 8.494 91.849 9.066 91.89 9.56L90.84 9.56 90.773 8.533 90.746 8.533C90.45 9.04 89.75 9.703 88.593 9.703 87.571 9.703 86.345 9.144 86.345 6.947L86.345 3.268 87.53 3.268 87.53 6.739C87.53 7.935 87.92 8.755 88.984 8.755 89.778 8.755 90.33 8.222 90.545 7.701 90.612 7.546 90.652 7.338 90.652 7.116L90.652 3.268 91.837 3.268 91.837 7.831 91.836 7.831ZM93.64 8.403C94.003 8.611 94.622 8.845 95.214 8.845 96.063 8.845 96.466 8.442 96.466 7.908 96.466 7.362 96.129 7.076 95.268 6.764 94.084 6.348 93.533 5.737 93.533 4.983 93.533 3.969 94.394 3.137 95.78 3.137 96.439 3.137 97.018 3.306 97.368 3.527L97.086 4.359C96.83 4.203 96.359 3.982 95.754 3.982 95.054 3.982 94.677 4.372 94.677 4.84 94.677 5.36 95.054 5.594 95.902 5.919 97.019 6.321 97.611 6.867 97.611 7.804 97.611 8.922 96.71 9.701 95.189 9.701 94.475 9.701 93.816 9.519 93.359 9.26L93.64 8.403ZM100.449 1.5C100.449 1.891 100.167 2.202 99.696 2.202 99.265 2.202 98.982 1.89 98.982 1.5 98.982 1.11 99.278.785 99.722.785 100.153.785 100.449 1.098 100.449 1.5ZM99.131 9.561 99.131 3.269 100.316 3.269 100.316 9.561 99.131 9.561ZM106.856 8.053C106.856 8.599 106.882 9.132 106.95 9.561L105.887 9.561 105.793 8.768 105.753 8.768C105.389 9.262 104.69 9.704 103.761 9.704 102.442 9.704 101.769 8.808 101.769 7.897 101.769 6.376 103.169 5.543 105.686 5.557L105.686 5.427C105.686 4.919 105.538 3.971 104.206 3.984 103.587 3.984 102.954 4.153 102.497 4.452L102.227 3.685C102.765 3.36 103.559 3.139 104.38 3.139 106.372 3.139 106.857 4.451 106.857 5.7L106.857 8.053 106.856 8.053ZM105.712 6.35C104.42 6.324 102.953 6.544 102.953 7.767 102.953 8.521 103.465 8.859 104.057 8.859 104.918 8.859 105.47 8.339 105.659 7.806 105.699 7.676 105.713 7.546 105.713 7.442L105.713 6.35 105.712 6.35ZM108.606 8.403C108.969 8.611 109.588 8.845 110.18 8.845 111.028 8.845 111.432 8.442 111.432 7.908 111.432 7.362 111.095 7.076 110.234 6.764 109.049 6.348 108.498 5.737 108.498 4.983 108.498 3.969 109.359 3.137 110.746 3.137 111.405 3.137 111.984 3.306 112.334 3.527L112.052 4.359C111.796 4.203 111.324 3.982 110.719 3.982 110.02 3.982 109.643 4.372 109.643 4.84 109.643 5.36 110.02 5.594 110.868 5.919 111.985 6.321 112.577 6.867 112.577 7.804 112.577 8.922 111.676 9.701 110.155 9.701 109.441 9.701 108.782 9.519 108.324 9.26L108.606 8.403ZM116.99 9.561 116.99.798 118.282.798 121.176 5.232C121.836 6.259 122.374 7.182 122.791 8.079L122.831 8.066C122.724 6.896 122.697 5.83 122.697 4.464L122.697.798 123.801.798 123.801 9.561 122.616 9.561 119.736 5.115C119.103 4.14 118.498 3.139 118.053 2.19L118.013 2.203C118.08 3.308 118.093 4.361 118.093 5.817L118.093 9.561 116.99 9.561Z"/><polygon points="127.568 1.761 124.809 1.761 124.809 .798 131.525 .798 131.525 1.761 128.753 1.761 128.753 9.561 127.568 9.561 127.568 1.761"/><path d="M135.348 5.322C135.348 4.516 135.321 3.866 135.294 3.268L136.344 3.268 136.411 4.347 136.437 4.347C136.909 3.579 137.689 3.138 138.752 3.138 140.34 3.138 141.524 4.425 141.524 6.323 141.524 8.586 140.084 9.703 138.549 9.703 137.688 9.703 136.934 9.34 136.544 8.716L136.517 8.716 136.517 12.135 135.346 12.135 135.346 5.322 135.348 5.322ZM136.519 6.999C136.519 7.169 136.533 7.324 136.573 7.468 136.789 8.261 137.502 8.807 138.349 8.807 139.601 8.807 140.328 7.819 140.328 6.375 140.328 5.127 139.641 4.048 138.39 4.048 137.582 4.048 136.815 4.595 136.6 5.452 136.559 5.596 136.519 5.764 136.519 5.907L136.519 6.999 136.519 6.999ZM148.9 6.362C148.9 8.689 147.218 9.703 145.657 9.703 143.907 9.703 142.535 8.455 142.535 6.467 142.535 4.373 143.974 3.139 145.764 3.139 147.636 3.139 148.9 4.451 148.9 6.362ZM143.746 6.428C143.746 7.806 144.554 8.846 145.711 8.846 146.842 8.846 147.69 7.819 147.69 6.402 147.69 5.336 147.138 3.9969994 145.739 3.9969994 144.352 3.996 143.746 5.244 143.746 6.428ZM150.395 5.231C150.395 4.49 150.381 3.853 150.341 3.268L151.377 3.268 151.431 4.516 151.472 4.516C151.768 3.67 152.494 3.138 153.288 3.138 153.409 3.138 153.504 3.151 153.611 3.163L153.611 4.242C153.49 4.217 153.369 4.217 153.207 4.217 152.373 4.217 151.781 4.815 151.619 5.673 151.593 5.828 151.579 6.024 151.579 6.205L151.579 9.559 150.394 9.559 150.394 5.231 150.395 5.231ZM156.545 1.761 156.545 3.269 158.24 3.269 158.24 4.14 156.545 4.14 156.545 7.533C156.545 8.313 156.774 8.756 157.433 8.756 157.756 8.756 157.945 8.73 158.12 8.678L158.174 9.549C157.945 9.627 157.582 9.704 157.124 9.704 156.572 9.704 156.129 9.522 155.846 9.224 155.523 8.872 155.389 8.314 155.389 7.573L155.389 4.14 154.379 4.14 154.379 3.269 155.389 3.269 155.389 2.099 156.545 1.761ZM164.148 8.053C164.148 8.599 164.174 9.132 164.242 9.561L163.179 9.561 163.085 8.768 163.045 8.768C162.682 9.262 161.982 9.704 161.053 9.704 159.734 9.704 159.061 8.808 159.061 7.897 159.061 6.376 160.461 5.543 162.978 5.557L162.978 5.427C162.978 4.919 162.83 3.971 161.498 3.984 160.879 3.984 160.246 4.153 159.789 4.452L159.519 3.685C160.057 3.36 160.851 3.139 161.672 3.139 163.664 3.139 164.149 4.451 164.149 5.7L164.149 8.053 164.148 8.053ZM163.004 6.35C161.712 6.324 160.245 6.544 160.245 7.767 160.245 8.521 160.757 8.859 161.349 8.859 162.21 8.859 162.762 8.339 162.951 7.806 162.991 7.676 163.005 7.546 163.005 7.442L163.005 6.35 163.004 6.35Z"/><polygon points="166.06 .33 167.245 .33 167.245 9.56 166.06 9.56"/><path d="M173.812 8.053C173.812 8.599 173.838 9.132 173.906 9.561L172.843 9.561 172.749 8.768 172.709 8.768C172.346 9.262 171.646 9.704 170.717 9.704 169.398 9.704 168.725 8.808 168.725 7.897 168.725 6.376 170.125 5.543 172.642 5.557L172.642 5.427C172.642 4.919 172.494 3.971 171.162 3.984 170.543 3.984 169.91 4.153 169.453 4.452L169.183 3.685C169.721 3.36 170.515 3.139 171.336 3.139 173.328 3.139 173.813 4.451 173.813 5.7L173.813 8.053 173.812 8.053ZM172.668 6.35C171.376 6.324 169.909 6.544 169.909 7.767 169.909 8.521 170.421 8.859 171.013 8.859 171.874 8.859 172.426 8.339 172.615 7.806 172.655 7.676 172.669 7.546 172.669 7.442L172.669 6.35 172.668 6.35ZM175.562 8.403C175.925 8.611 176.544 8.845 177.136 8.845 177.984 8.845 178.388 8.442 178.388 7.908 178.388 7.362 178.051 7.076 177.19 6.764 176.005 6.348 175.454 5.737 175.454 4.983 175.454 3.969 176.315 3.137 177.702 3.137 178.361 3.137 178.94 3.306 179.29 3.527L179.008 4.359C178.752 4.203 178.28 3.982 177.675 3.982 176.976 3.982 176.599 4.372 176.599 4.84 176.599 5.36 176.976 5.594 177.824 5.919 178.941 6.321 179.533 6.867 179.533 7.804 179.533 8.922 178.632 9.701 177.111 9.701 176.397 9.701 175.738 9.519 175.28 9.26L175.562 8.403Z"/></g></g></svg>